<?xml version="1.0" encoding="UTF-8" standalone="no"?>
<!-- Created with Inkscape (http://www.inkscape.org/) -->

<svg
   width="149.03102mm"
   height="114.28684mm"
   viewBox="0 0 149.03102 114.28684"
   version="1.1"
   id="svg1"
   xml:space="preserve"
   inkscape:export-filename="simplified.svg"
   inkscape:export-xdpi="96"
   inkscape:export-ydpi="96"
   xmlns:inkscape="http://www.inkscape.org/namespaces/inkscape"
   xmlns:sodipodi="http://sodipodi.sourceforge.net/DTD/sodipodi-0.dtd"
   xmlns="http://www.w3.org/2000/svg"
   xmlns:svg="http://www.w3.org/2000/svg"><sodipodi:namedview
     id="namedview1"
     pagecolor="#ffffff"
     bordercolor="#000000"
     borderopacity="0.25"
     inkscape:showpageshadow="2"
     inkscape:pageopacity="0.0"
     inkscape:pagecheckerboard="0"
     inkscape:deskcolor="#d1d1d1"
     inkscape:document-units="mm"><inkscape:page
       x="0"
       y="0"
       width="149.03102"
       height="114.28684"
       id="page2"
       margin="0"
       bleed="0" /></sodipodi:namedview><defs
     id="defs1"><rect
       x="170.76218"
       y="411.11801"
       width="57.500942"
       height="15.608853"
       id="rect29" /><rect
       x="145.63113"
       y="137.25414"
       width="140.47606"
       height="51.550846"
       id="rect28" /><rect
       x="455.5806"
       y="311.88263"
       width="79.25943"
       height="35.441208"
       id="rect27" /><rect
       x="171.40657"
       y="126.94396"
       width="82.481354"
       height="16.754025"
       id="rect26" /><rect
       x="135.96536"
       y="134.67659"
       width="193.31567"
       height="67.660484"
       id="rect25" /><rect
       x="19.975952"
       y="307.37192"
       width="24.486652"
       height="13.532097"
       id="rect2" /></defs><g
     inkscape:label="Layer 1"
     inkscape:groupmode="layer"
     id="layer1"
     transform="matrix(0.99784769,0,0,1,-5.2739285,-25.265857)"
     inkscape:export-filename="simplified.jpg"
     inkscape:export-xdpi="96"
     inkscape:export-ydpi="96"><path
       style="fill:#0000ff;fill-opacity:1;stroke:none;stroke-width:2.495;stroke-opacity:1"
       d="m 27.619976,36.656142 c -4.773822,4.944316 -6.137772,6.819746 -8.183696,15.003444 -2.045924,8.183697 -3.580368,14.321469 -4.944317,17.219863 -1.363949,2.898392 -0.852468,4.944317 -1.193456,10.22962 -0.340987,5.285303 1.875431,15.855913 1.704937,20.459242 -0.170493,4.603329 1.875431,15.855909 4.091848,17.560849 2.216418,1.70494 13.298508,9.88863 24.380596,12.61653 11.082092,2.7279 57.797362,3.06889 65.299082,2.89839 7.50172,-0.17049 9.54765,-1.02296 15.34443,-5.2853 5.79679,-4.26234 6.81975,-15.34443 9.03617,-19.60677 2.21641,-4.26234 5.2853,-14.832953 5.79678,-21.6527 0.51148,-6.819746 1.70494,-13.469 1.70494,-20.970724 0,-7.50172 5.62629,-12.957518 0.17049,-20.118255 -5.4558,-7.160733 -113.207804,-8.354189 -113.207804,-8.354189 z"
       id="path25" /><text
       xml:space="preserve"
       transform="scale(0.26458333)"
       id="text2"
       style="writing-mode:lr-tb;direction:ltr;white-space:pre;shape-inside:url(#rect2);fill:none;fill-opacity:1;stroke:none;stroke-width:9.42992;stroke-opacity:1" /><path
       style="fill:#808080;fill-opacity:1;stroke:none;stroke-width:2.495;stroke-opacity:1"
       d="m 7.3312284,82.007463 c 20.4592416,2.386909 16.8788746,3.580365 21.9936846,2.386909 5.114812,-1.193456 3.409874,0 8.183698,-2.216417 4.773821,-2.216417 7.50172,0.170495 9.71814,-6.478759 2.216417,-6.649255 1.193456,-6.990242 6.308265,-10.229623 5.114811,-3.239378 5.285306,-5.285303 11.082091,-4.603329 5.796785,0.681977 20.629734,2.727899 24.039608,3.409873 3.409873,0.681977 15.685425,0.170495 21.482205,1.193456 5.79679,1.022964 19.60677,2.21642 22.84615,1.022964 3.23938,-1.193456 6.99024,0.340987 13.98048,-3.239381 6.99025,-3.580368 7.67222,-8.183697 7.67222,-13.469001 0,-5.285303 -0.51148,-17.219861 -4.43283,-19.095293 -3.92136,-1.87543 -8.01321,-2.898392 -17.73135,-4.262341 -9.71814,-1.363949 -12.44604,-0.681975 -22.84615,-0.852469 -10.400116,-0.170493 -22.334674,-0.681974 -25.574055,0.170494 -3.239378,0.852468 -4.432834,2.386911 -15.003444,2.386911 -10.570609,0 -13.809987,-1.704936 -21.82319,-2.557405 -8.013205,-0.852468 -29.665902,5.11481 -30.347876,9.377152 -0.681975,4.262342 -2.898393,15.855913 -3.750861,20.118255 -0.852469,4.262342 -7.8427098,12.616534 -7.8427098,14.491964 0,1.875431 2.0459242,12.44604 2.0459242,12.44604 z"
       id="path3" /><path
       style="fill:#808080;fill-opacity:1;stroke:none;stroke-width:2.495;stroke-opacity:1"
       d="m 49.272674,86.781284 c 6.308267,1.022964 7.84271,2.216418 10.570609,1.193456 2.727899,-1.022961 20.459242,-1.363948 21.652698,-1.193456 1.193456,0.170495 11.423076,0.681974 12.616532,0.511482 1.193456,-0.170495 0.852469,0 3.409873,-0.170495 2.557404,-0.170492 2.557404,-1.363948 3.239384,-4.091847 0.68197,-2.727899 1.36395,-4.432837 1.02296,-7.672215 -0.34099,-3.239381 -1.02296,-3.409874 -4.432836,-4.09185 -3.409873,-0.681974 -8.524685,0 -12.275545,0 -3.750863,0 -8.183697,-0.340987 -9.036166,-0.852467 -0.852469,-0.511482 -2.727899,-0.511482 -5.455798,-0.340989 -2.7279,0.170494 -8.695177,0.511482 -10.059128,1.022963 -1.363948,0.51148 -0.852469,3.068887 -2.727899,5.285304 -1.87543,2.216417 -4.773822,5.626293 -6.649254,6.308267 -1.87543,0.681974 -1.87543,4.091847 -1.87543,4.091847 z"
       id="path4" /><path
       style="fill:#808080;fill-opacity:1;stroke:none;stroke-width:2.495;stroke-opacity:1"
       d="m 113.03731,74.335245 c -1.87543,-0.681974 -1.70493,-2.045923 -4.60333,-1.87543 -2.89839,0.170495 -2.38691,4.262342 -2.38691,8.354192 0,4.091847 -2.38691,12.275545 -3.23938,13.639493 -0.85247,1.363951 -3.750861,-1.87543 -3.921353,2.386912 -0.170495,4.262338 1.193453,7.331228 2.557403,7.501728 1.36395,0.17049 4.60333,1.36394 6.81975,1.36394 2.21642,0 7.84271,0.51149 10.7411,-0.17049 2.89839,-0.68198 4.60333,-0.85247 9.20666,-1.53444 4.60333,-0.68198 10.7411,-2.04593 12.44604,-2.38691 1.70494,-0.34099 5.11481,-2.898398 5.4558,-6.137776 0.34099,-3.239381 1.53444,-10.400115 0,-13.639496 -1.53445,-3.239381 -1.02297,-5.62629 -4.60333,-6.819746 -3.58037,-1.193456 -12.95752,-1.875431 -17.39036,-2.386912 -4.43283,-0.511482 -11.08209,1.704935 -11.08209,1.704935 z"
       id="path5" /><path
       style="fill:#808080;fill-opacity:1;stroke:none;stroke-width:2.495;stroke-opacity:1"
       d="m 10.570608,92.237083 c 1.36395,0 16.026406,2.898394 26.597016,1.193456 10.570606,-1.704938 13.98048,-0.340987 18.583812,-0.170495 4.603329,0.170495 6.137772,-0.681974 19.095291,1.534443 12.957521,2.21642 17.731343,-0.852466 18.924799,-1.022961 1.193456,-0.170493 -2.386912,8.354194 -2.386912,8.354194 0,0 -7.160734,3.92135 -0.170493,6.47876 6.990242,2.5574 7.842708,5.11481 12.787029,5.2853 4.94431,0.1705 2.89839,2.38691 11.59357,1.19346 8.69518,-1.19346 21.31171,-3.06889 21.31171,-3.06889 0,0 -1.36395,5.79679 -2.38691,11.25258 -1.02297,5.4558 -4.60333,13.469 -7.50173,15.34443 -2.89839,1.87543 -19.60677,0.51149 -26.59701,-0.34098 -6.990241,-0.85247 -12.44604,3.75086 -38.190585,-0.85247 -25.744548,-4.60333 -33.416763,-3.06889 -40.918485,-5.2853 -7.501722,-2.21642 -15.0034436,-3.06889 -15.6854185,-8.52469 -0.6819747,-5.4558 4.9443165,-31.370837 4.9443165,-31.370837 z"
       id="path6" /><path
       style="fill:#ff0000;fill-opacity:1;stroke:none;stroke-width:2.495;stroke-opacity:1"
       id="path18"
       d="m 53.776803,85.066769 c -0.525286,0.935026 -0.940803,1.93757 -1.321316,2.939756 -0.483233,1.247486 -0.968899,2.494444 -1.465501,3.736694 -0.253801,0.677627 -0.685213,1.246492 -1.120812,1.812732 -0.308097,0.475414 -0.572323,0.974156 -0.885171,1.447295 -0.358294,0.532545 -0.864542,0.936876 -1.254964,1.444193 0,0 3.381891,2.00741 3.381891,2.00741 v 0 c 0.380479,-0.520308 0.885735,-0.934413 1.242766,-1.473115 0.322001,-0.461682 0.602245,-0.942004 0.894363,-1.422525 0.437232,-0.609311 0.862161,-1.225565 1.115965,-1.939888 0.452006,-1.259604 0.904203,-2.519592 1.413931,-3.757398 0.401902,-0.953611 0.794081,-1.944034 1.403183,-2.785544 z" /><path
       style="fill:#ff0000;fill-opacity:1;stroke:none;stroke-width:2.495;stroke-opacity:1"
       id="path19"
       d="m 69.297414,84.862121 c -0.45204,0.692216 -0.885039,1.39151 -1.252971,2.132386 -0.421971,0.848352 -0.843177,1.68815 -1.104382,2.601097 -0.320817,1.03223 -0.613523,2.070849 -0.868209,3.121337 -0.120602,0.800537 -0.364611,1.415394 -0.722849,2.128134 -0.375201,0.64207 -0.895615,1.180407 -1.412611,1.708587 0,0 3.326985,2.030153 3.326985,2.030153 v 0 c 0.534993,-0.564624 1.089938,-1.123588 1.478182,-1.804432 0.361603,-0.70622 0.652571,-1.430938 0.738989,-2.22827 0.224351,-1.051243 0.499613,-2.089561 0.861764,-3.102555 0.246838,-0.890362 0.663109,-1.708713 1.062471,-2.539267 0.363191,-0.709422 0.778198,-1.392997 1.285595,-2.01004 z" /><path
       style="fill:#ff0000;fill-opacity:1;stroke:none;stroke-width:2.495;stroke-opacity:1"
       id="path20"
       d="m 86.536262,60.743234 c -0.302326,1.11215 -0.87738,2.136907 -1.408756,3.154156 -0.356875,0.63201 -0.680312,1.287833 -1.109869,1.875518 -0.161784,0.221339 -0.334081,0.434842 -0.49667,0.655589 -0.50474,0.659371 -0.837512,1.420779 -1.235186,2.144316 -0.284478,0.567825 -0.70476,1.011878 -1.183762,1.416473 -0.538483,0.395492 -0.908635,0.953826 -1.279792,1.498317 -0.40554,0.59 -0.680268,1.250728 -0.983107,1.895414 -0.05855,0.147934 -0.117091,0.295871 -0.175638,0.443807 0,0 3.382263,1.892327 3.382263,1.892327 v 0 c 0.05933,-0.139984 0.118653,-0.279969 0.17798,-0.419952 0.294664,-0.627272 0.602105,-1.245675 0.972302,-1.832753 0.347837,-0.524127 0.723588,-1.023237 1.23231,-1.404554 0.50782,-0.44536 0.940633,-0.93595 1.231421,-1.554544 0.377007,-0.715428 0.732599,-1.443196 1.213136,-2.097754 0.16125,-0.227719 0.334049,-0.44723 0.491836,-0.677362 0.419841,-0.612344 0.710092,-1.300618 1.088311,-1.93756 0.524322,-1.050089 1.081728,-2.084665 1.560579,-3.15595 z" /><path
       style="fill:#ff0000;fill-opacity:1;stroke:none;stroke-width:2.495;stroke-opacity:1"
       id="path21"
       d="m 72.715609,60.381154 c 0.882644,-1.234455 2.075211,-0.09747 -3.295341,-1.944896 -0.147452,-0.05072 -0.113665,0.290846 -0.182983,0.430522 -0.09691,0.19527 -0.575085,1.017572 -0.657667,1.160947 -0.796988,1.297897 -1.568527,2.607198 -2.230739,3.979497 -0.415226,0.917551 -0.704427,1.885971 -0.936874,2.864083 -0.05914,0.355727 -0.228211,0.679847 -0.312708,1.028118 -0.02728,0.112429 -0.0456,0.226848 -0.06841,0.340272 -0.03186,0.129895 -0.06372,0.259787 -0.09559,0.389681 -0.249251,1.187934 -0.702437,2.308051 -1.243317,3.389173 0,0 3.349241,1.901856 3.349241,1.901856 v 0 c 0.523513,-1.110702 0.970214,-2.250908 1.312334,-3.431436 0.180588,-0.586931 0.345866,-1.180672 0.49653,-1.775352 0.175805,-0.967968 0.454951,-1.911503 0.828347,-2.822427 0.620546,-1.375968 1.364541,-2.691566 2.190782,-3.954692 0.109064,-0.170974 0.607554,-0.948743 0.731583,-1.156264 0.0875,-0.146402 0.378915,-0.332936 0.251074,-0.445833 -2.805491,-2.477596 -2.53547,-3.24834 -3.55359,-1.955695 z" /><path
       style="fill:#ff0000;fill-opacity:1;stroke:none;stroke-width:2.495;stroke-opacity:1"
       id="path22"
       d="m 103.29898,61.738083 c 0.0779,0.134726 0.16541,0.264367 0.23381,0.40418 0.38541,0.78785 0.56027,1.297173 0.8654,2.161789 0.53214,1.507826 0.98675,3.040338 1.46524,4.565629 0.69873,2.029785 1.42467,4.059687 2.38267,5.983869 0.50576,0.848128 0.73752,1.807631 1.10136,2.715506 0.23639,0.579255 0.11828,0.293429 0.35416,0.857549 0,0 3.52447,1.620134 3.52447,1.620134 v 0 c -0.24535,-0.562684 -0.12291,-0.27723 -0.36709,-0.856469 -0.11293,-0.27214 -0.25104,-0.588981 -0.34298,-0.870789 -0.21309,-0.653145 -0.39396,-1.319157 -0.78275,-1.899267 -1.08658,-1.910601 -1.90276,-3.964847 -2.64601,-6.029142 -0.47062,-1.509996 -0.93109,-3.023322 -1.39016,-4.536834 -0.13277,-0.437708 -0.45856,-1.592096 -0.63015,-2.107607 -0.0449,-0.134983 -0.10304,-0.265213 -0.15455,-0.397823 z" /><path
       style="fill:#ff0000;fill-opacity:1;stroke:none;stroke-width:2.495;stroke-opacity:1"
       id="path23"
       d="m 99.140133,82.350749 c 1.579587,0.04719 3.160057,0.03279 4.740177,0.04309 1.97255,-0.04527 3.94228,0.105801 5.85702,0.590489 0.68071,0.209262 1.33019,0.502661 1.99671,0.749371 0,0 -3.07487,-2.409319 -3.07487,-2.409319 v 0 c -0.64298,-0.250815 -1.2885,-0.501788 -1.96356,-0.654302 -1.91099,-0.372535 -3.85765,-0.478879 -5.80259,-0.451313 -1.64127,-0.02289 -3.288439,-0.03833 -4.921487,-0.218744 z" /><path
       style="fill:#ff0000;fill-opacity:1;stroke:none;stroke-width:2.495;stroke-opacity:1"
       id="path24"
       d="m 105.45033,118.11547 c 0.79101,-0.61044 1.44037,-1.37113 2.07985,-2.13275 0.84752,-1.02161 1.33396,-2.27387 1.84674,-3.48381 0.38231,-0.93201 0.70166,-1.88799 1.01674,-2.84428 0.2991,-1.02756 0.49008,-2.08407 0.69142,-3.1345 0.14985,-0.80161 0.33479,-1.59382 0.56746,-2.37516 0,0 -3.38112,-1.84284 -3.38112,-1.84284 v 0 c -0.21757,0.79631 -0.40527,1.59971 -0.56897,2.40894 -0.21738,1.02956 -0.42103,2.06332 -0.70653,3.07663 -0.30005,0.95121 -0.62066,1.89592 -0.97043,2.82995 -0.50231,1.17369 -0.91268,2.4166 -1.76031,3.39775 -0.64305,0.72892 -1.31042,1.45743 -2.15047,1.9643 z" /><text
       xml:space="preserve"
       transform="scale(0.26458333)"
       id="text25"
       style="writing-mode:lr-tb;direction:ltr;white-space:pre;shape-inside:url(#rect25);fill:#0000ff;fill-opacity:1;stroke:none;stroke-width:9.42992;stroke-opacity:1" /><text
       xml:space="preserve"
       transform="matrix(0.36903511,0,0,0.91039239,-1.6127519,-41.883185)"
       id="text26"
       style="writing-mode:lr-tb;direction:ltr;white-space:pre;shape-inside:url(#rect26);fill:#0000ff;fill-opacity:1;stroke:none;stroke-width:9.42992;stroke-opacity:1"><tspan
         x="171.40625"
         y="137.86186"
         id="tspan1">(C)osme Velho</tspan></text><text
       xml:space="preserve"
       transform="matrix(0.41252943,0,0,1.3116282,-75.604391,-329.23889)"
       id="text27"
       style="writing-mode:lr-tb;direction:ltr;white-space:pre;shape-inside:url(#rect27);fill:#0000ff;fill-opacity:1;stroke:none;stroke-width:9.42992;stroke-opacity:1"><tspan
         x="455.58008"
         y="322.80131"
         id="tspan2">(L)aranjeiras</tspan></text><text
       xml:space="preserve"
       transform="matrix(0.81710943,0,0,0.81868781,-89.462183,-71.593763)"
       id="text28"
       style="writing-mode:lr-tb;direction:ltr;white-space:pre;shape-inside:url(#rect28);fill:#0000ff;fill-opacity:1;stroke:none;stroke-width:9.42992;stroke-opacity:1"><tspan
         x="145.63086"
         y="148.17241"
         id="tspan3">(R)io Comprido</tspan></text><text
       xml:space="preserve"
       transform="matrix(0.94114564,0,0,0.74115524,-126.20709,-194.66017)"
       id="text29"
       style="writing-mode:lr-tb;direction:ltr;white-space:pre;shape-inside:url(#rect29);fill:#0000ff;fill-opacity:1;stroke:none;stroke-width:9.42992;stroke-opacity:1"><tspan
         x="170.76172"
         y="422.03569"
         id="tspan4">(H)umaita</tspan></text></g></svg>
