<?xml version="1.0" encoding="UTF-8" standalone="no"?>
<!-- Created with Inkscape (http://www.inkscape.org/) -->

<svg
   width="131.1866mm"
   height="142.97369mm"
   viewBox="0 0 131.1866 142.97369"
   version="1.1"
   id="svg1"
   xml:space="preserve"
   inkscape:export-filename="simplified-2.svg"
   inkscape:export-xdpi="96"
   inkscape:export-ydpi="96"
   xmlns:inkscape="http://www.inkscape.org/namespaces/inkscape"
   xmlns:sodipodi="http://sodipodi.sourceforge.net/DTD/sodipodi-0.dtd"
   xmlns="http://www.w3.org/2000/svg"
   xmlns:svg="http://www.w3.org/2000/svg"><sodipodi:namedview
     id="namedview1"
     pagecolor="#ffffff"
     bordercolor="#000000"
     borderopacity="0.25"
     inkscape:showpageshadow="2"
     inkscape:pageopacity="0.0"
     inkscape:pagecheckerboard="0"
     inkscape:deskcolor="#d1d1d1"
     inkscape:document-units="mm"><inkscape:page
       x="1.3382773e-21"
       y="0"
       width="131.18658"
       height="142.97369"
       id="page2"
       margin="0"
       bleed="0" /></sodipodi:namedview><defs
     id="defs1"><rect
       x="170.76218"
       y="411.11801"
       width="10.630922"
       height="14.34237"
       id="rect29" /><rect
       x="145.63113"
       y="137.25414"
       width="9.6785288"
       height="14.288224"
       id="rect28" /><rect
       x="455.5806"
       y="311.88263"
       width="8.9915514"
       height="13.971858"
       id="rect27" /><rect
       x="171.40657"
       y="126.94396"
       width="13.494299"
       height="15.980737"
       id="rect26" /><rect
       x="135.96536"
       y="134.67659"
       width="193.31567"
       height="67.660484"
       id="rect25" /><rect
       x="19.975952"
       y="307.37192"
       width="24.486652"
       height="13.532097"
       id="rect2" /></defs><g
     inkscape:label="Layer 1"
     inkscape:groupmode="layer"
     id="layer1"
     transform="matrix(0.99784769,0,0,1,-43.614662,-35.691684)"
     inkscape:export-filename="simplified-2.png"
     inkscape:export-xdpi="96"
     inkscape:export-ydpi="96"
     style="stroke-width:1.00008;stroke-dasharray:none"><path
       style="fill:#0000ff;fill-opacity:1;stroke:none;stroke-width:1.00008;stroke-dasharray:none;stroke-opacity:1"
       d="m 58.234224,35.691684 c -4.829778,7.361743 -6.209716,10.154129 -8.279626,22.339082 -2.069902,12.184963 -3.622327,21.323678 -5.002265,25.639196 -1.37994,4.3155 -0.862462,7.361733 -1.207451,15.231194 -0.344987,7.869444 1.897415,23.608354 1.724925,30.462394 -0.172505,6.85402 1.897413,23.60834 4.139814,26.14688 2.242389,2.53854 13.45438,14.72348 24.666369,18.78515 11.211989,4.06166 58.47485,4.56935 66.06449,4.31549 7.58965,-0.25383 9.65958,-1.52311 15.5243,-7.86945 5.86475,-6.34631 6.89969,-22.84678 9.14208,-29.19312 2.2424,-6.34632 5.34726,-22.08522 5.86474,-32.23936 0.51746,-10.154136 1.72492,-20.054407 1.72492,-31.223964 0,-11.169541 5.69225,-19.292836 0.17243,-29.954683 C 167.2492,37.468658 58.234153,35.691684 58.234153,35.691684 Z"
       id="path25" /><text
       xml:space="preserve"
       transform="scale(0.26458333)"
       id="text2"
       style="writing-mode:lr-tb;direction:ltr;white-space:pre;shape-inside:url(#rect2);fill:none;fill-opacity:1;stroke:none;stroke-width:3.77982;stroke-dasharray:none;stroke-opacity:1" /><path
       style="fill:#808080;fill-opacity:1;stroke:none;stroke-width:1.00008;stroke-dasharray:none;stroke-opacity:1"
       d="m 83.212393,68.058516 c 2.3376,0.830312 1.928519,1.24547 2.51292,0.830312 0.5844,-0.415155 0.389601,0 0.93504,-0.771005 0.545439,-0.771005 0.857119,0.05931 1.110359,-2.25371 0.25324,-2.313018 0.136361,-2.431634 0.72076,-3.558489 0.5844,-1.126854 0.60388,-1.838551 1.266201,-1.60132 0.662319,0.237233 2.357078,0.948931 2.746677,1.186163 0.389601,0.237233 1.792162,0.05931 2.454481,0.415157 0.662319,0.35585 2.240199,0.771007 2.610318,0.35585 0.370121,-0.415157 0.79868,0.118615 1.597359,-1.126856 0.79868,-1.245471 0.876602,-2.846791 0.876602,-4.685343 0,-1.838552 -0.05843,-5.990124 -0.506481,-6.642514 -0.448039,-0.652388 -0.915558,-1.008238 -2.025919,-1.482702 -1.11036,-0.474466 -1.42204,-0.237233 -2.610319,-0.296542 -1.18828,-0.05932 -2.55188,-0.237232 -2.921999,0.05931 -0.370121,0.29654 -0.50648,0.830314 -1.714241,0.830314 -1.207759,0 -1.577878,-0.593083 -2.493439,-0.889623 -0.915559,-0.296541 -3.389518,1.779244 -3.467438,3.261948 -0.07793,1.482704 -0.331159,5.515658 -0.42856,6.998362 -0.09741,1.482702 -0.89608,4.388804 -0.89608,5.041192 0,0.65239 0.233759,4.329495 0.233759,4.329495 z"
       id="path3" /><path
       style="fill:#808080;fill-opacity:1;stroke:none;stroke-width:1.00008;stroke-dasharray:none;stroke-opacity:1"
       d="m 76.11282,118.43748 c 1.991545,1.48645 2.475975,3.22064 3.337183,1.73419 0.861209,-1.48644 6.459065,-1.98193 6.835843,-1.73419 0.376779,0.24775 3.606311,0.99097 3.98309,0.74323 0.376778,-0.24775 0.269128,0 1.07651,-0.24775 0.807384,-0.24773 0.807384,-1.98192 1.022687,-5.94578 0.2153,-3.96386 0.430604,-6.44127 0.322953,-11.14835 -0.107656,-4.707087 -0.322953,-4.954828 -1.399465,-5.945794 -1.07651,-0.990964 -2.691277,0 -3.875438,0 -1.184163,0 -2.583626,-0.495482 -2.852753,-1.238704 -0.269129,-0.743225 -0.861209,-0.743225 -1.722418,-0.495485 -0.861209,0.247742 -2.745101,0.743225 -3.175706,1.486449 -0.430605,0.743222 -0.269129,4.459344 -0.86121,7.679974 -0.59208,3.22064 -1.507114,8.17546 -2.099195,9.16643 -0.592081,0.99096 -0.592081,5.94578 -0.592081,5.94578 z"
       id="path4" /><path
       style="fill:#808080;fill-opacity:1;stroke:none;stroke-width:1.00008;stroke-dasharray:none;stroke-opacity:1"
       d="m 139.25135,100.16986 c -0.58447,-0.419438 -0.53132,-1.258303 -1.43459,-1.153445 -0.90327,0.104869 -0.74387,2.621455 -0.74387,5.138055 0,2.5166 -0.74387,7.5498 -1.00953,8.38867 -0.26567,0.83887 -1.16893,-1.15344 -1.22207,1.46802 -0.0531,2.62145 0.37193,4.5089 0.797,4.61377 0.42507,0.10487 1.4346,0.83886 2.12532,0.83886 0.69074,0 2.44414,0.31458 3.3474,-0.10487 0.90326,-0.41944 1.43459,-0.52429 2.8692,-0.94372 1.43459,-0.41944 3.34738,-1.25831 3.87872,-1.46802 0.53133,-0.2097 1.59399,-1.78259 1.70026,-3.7749 0.10629,-1.99231 0.4782,-6.39636 0,-8.38867 -0.4782,-1.99231 -0.3188,-3.46033 -1.4346,-4.19433 -1.1158,-0.734013 -4.03812,-1.153443 -5.41958,-1.468019 -1.38147,-0.314576 -3.45366,1.048579 -3.45366,1.048579 z"
       id="path5" /><path
       style="fill:#808080;fill-opacity:1;stroke:none;stroke-width:1.00008;stroke-dasharray:none;stroke-opacity:1"
       d="m 80.755245,145.63495 c 0.182132,0 2.140061,1.1211 3.551589,0.46163 1.41153,-0.65946 1.866861,-0.13194 2.481559,-0.066 0.614698,0.066 0.819599,-0.26378 2.549859,0.59353 1.730262,0.85732 2.367728,-0.32974 2.527093,-0.39568 0.159367,-0.066 -0.318732,3.23141 -0.318732,3.23141 0,0 -0.956198,1.51678 -0.02276,2.506 0.93343,0.9892 1.047263,1.97841 1.707494,2.04435 0.660232,0.066 0.387032,0.92328 1.54813,0.46165 1.161096,-0.46165 2.845824,-1.18706 2.845824,-1.18706 0,0 -0.182132,2.24221 -0.318732,4.35251 -0.1366,2.11032 -0.614698,5.20983 -1.001731,5.93525 -0.387033,0.72542 -2.618158,0.19784 -3.551589,-0.13194 -0.93343,-0.32973 -1.661963,1.45085 -5.099718,-0.32973 -3.437756,-1.78058 -4.462253,-1.18705 -5.463984,-2.04437 -1.00173,-0.8573 -2.003461,-1.18705 -2.094527,-3.29736 -0.09106,-2.11031 0.660232,-12.13428 0.660232,-12.13428 z"
       id="path6" /><text
       xml:space="preserve"
       transform="matrix(0.35869275,0,0,0.38446108,-2.4785381,-11.166366)"
       id="text25"
       style="writing-mode:lr-tb;direction:ltr;white-space:pre;shape-inside:url(#rect25);fill:#0000ff;fill-opacity:1;stroke:none;stroke-width:2.69306;stroke-dasharray:none;stroke-opacity:1" /><text
       xml:space="preserve"
       transform="matrix(0.76397242,0,0,0.93574103,-50.260677,-16.343611)"
       id="text26"
       style="writing-mode:lr-tb;direction:ltr;white-space:pre;shape-inside:url(#rect26);fill:#0000ff;fill-opacity:1;stroke:none;stroke-width:1.18281;stroke-dasharray:none;stroke-opacity:1"><tspan
         x="171.40625"
         y="137.86186"
         id="tspan1">C</tspan></text><text
       xml:space="preserve"
       transform="matrix(0.91345162,0,0,1.1099476,-276.01307,-244.26942)"
       id="text27"
       style="writing-mode:lr-tb;direction:ltr;white-space:pre;shape-inside:url(#rect27);fill:#0000ff;fill-opacity:1;stroke:none;stroke-width:0.993206;stroke-dasharray:none;stroke-opacity:1"><tspan
         x="455.58008"
         y="322.80131"
         id="tspan2">L</tspan></text><text
       xml:space="preserve"
       transform="matrix(1.1077464,0,0,0.7916425,-75.314672,-59.299684)"
       id="text28"
       style="writing-mode:lr-tb;direction:ltr;white-space:pre;shape-inside:url(#rect28);fill:#0000ff;fill-opacity:1;stroke:none;stroke-width:1.06794;stroke-dasharray:none;stroke-opacity:1"><tspan
         x="145.63086"
         y="148.17241"
         id="tspan3">R</tspan></text><text
       xml:space="preserve"
       transform="matrix(0.9629676,0,0,0.95756558,-80.684171,-243.52997)"
       id="text29"
       style="writing-mode:lr-tb;direction:ltr;white-space:pre;shape-inside:url(#rect29);fill:#0000ff;fill-opacity:1;stroke:none;stroke-width:1.04146;stroke-dasharray:none;stroke-opacity:1"><tspan
         x="170.76172"
         y="422.03569"
         id="tspan4">H</tspan></text><path
       style="fill:#ff0000;fill-opacity:1;stroke:none;stroke-width:1.00008;stroke-dasharray:none;stroke-opacity:1"
       id="path32"
       d="m 86.607538,57.964662 c 2.8e-5,2.817192 2.8e-5,5.634384 2.1e-5,8.45158 -4e-6,1.89632 -1.9e-5,3.792639 -1.5e-5,5.688963 0.06547,2.143143 -0.244933,4.269883 -0.4879,6.391474 -0.177361,1.699794 -0.08182,0.864987 -0.285021,2.504632 0,0 0.0011,7.7e-4 0.0011,7.7e-4 v 0 c 0.203203,-1.639649 0.107655,-0.804838 0.285013,-2.504637 0.242968,-2.121587 0.553399,-4.24833 0.487933,-6.391478 4e-6,-1.896323 -1.5e-5,-3.792651 -1.8e-5,-5.688977 -4e-6,-2.817185 -4e-6,-5.63437 2.5e-5,-8.451559 z" /><path
       style="fill:#ff0000;fill-opacity:1;stroke:none;stroke-width:1.00008;stroke-dasharray:none;stroke-opacity:1"
       id="path33"
       d="m 83.646451,63.89202 c -0.261293,2.092173 -0.509124,4.17962 -0.945603,6.23982 -0.525463,1.838508 -0.816247,3.740425 -1.254174,5.601348 -0.169797,0.721541 -0.563193,2.078511 -0.769269,2.804666 -0.551907,2.355659 -1.029904,4.733366 -1.481127,7.113779 -0.234685,1.198965 -0.348187,2.418223 -0.388349,3.640794 -0.109811,1.009879 0.106896,1.925949 0.421628,2.865068 0.329537,0.977343 0.719684,1.922687 1.161749,2.846674 0.379701,0.8718 0.743092,1.755149 1.043689,2.662047 0.164467,0.55041 0.47147,1.029975 0.793522,1.486815 0,0 1.23123,0.564477 1.23123,0.564477 v 0 c -0.33059,-0.437517 -0.64224,-0.907455 -0.812634,-1.444759 -0.29494,-0.914875 -0.667081,-1.800346 -1.039552,-2.68155 -0.440778,-0.920069 -0.842835,-1.854507 -1.168166,-2.829927 -0.314634,-0.92476 -0.557579,-1.815943 -0.443171,-2.81593 0.03591,-1.218242 0.133888,-2.434135 0.359567,-3.630886 0.433175,-2.381893 0.906904,-4.759174 1.455558,-7.113191 0.176254,-0.628413 0.62436,-2.203335 0.769366,-2.816493 0.439681,-1.859245 0.734401,-3.759236 1.261182,-5.596023 0.446553,-2.05471 0.696936,-4.136944 0.985042,-6.221699 z" /><path
       style="fill:#ff0000;fill-opacity:1;stroke:none;stroke-width:1.00008;stroke-dasharray:none;stroke-opacity:1"
       id="path34"
       d="m 90.377791,60.02906 c 0.713019,2.315947 1.117533,4.719409 1.444917,7.127001 0.31498,2.438332 0.386064,4.900999 0.426302,7.358785 0.02031,2.285167 0.0151,4.570512 0.0075,6.855737 -0.006,1.498748 -0.01261,2.997493 -0.01772,4.496246 -0.08179,0.998133 -0.2057,1.98965 -0.267525,2.990004 -0.0603,0.994785 -0.03659,1.992035 -0.09787,2.986374 -0.155609,1.543511 -0.649064,3.011621 -1.261012,4.408842 -0.284639,0.718746 -0.643825,1.393509 -1.044408,2.043841 0,0 1.151231,0.720296 1.151231,0.720296 v 0 c 0.401952,-0.657602 0.76282,-1.339294 1.04664,-2.065959 0.616853,-1.412215 1.105787,-2.897553 1.288946,-4.451287 0.0776,-0.99332 0.04176,-1.990733 0.101826,-2.985764 0.05969,-1.003547 0.182667,-1.998248 0.269923,-2.998953 -0.0028,-1.502862 -0.0052,-3.005729 -0.0053,-4.508591 7.19e-4,-2.286218 0.01369,-4.572496 -0.0075,-6.858647 -0.03587,-2.465642 -0.121131,-4.936282 -0.433003,-7.382211 -0.326668,-2.403347 -0.720809,-4.801315 -1.390047,-7.126478 z" /><path
       style="fill:#ff0000;fill-opacity:1;stroke:none;stroke-width:1.00008;stroke-dasharray:none;stroke-opacity:1"
       id="path35"
       d="m 91.044889,109.2795 c 1.531309,-0.59553 3.117278,-0.99703 4.671284,-1.51824 1.856097,-0.69706 3.764666,-1.09872 5.715497,-1.32279 1.73176,-0.16532 3.47194,-0.17769 5.20928,-0.18144 1.1181,0.0182 2.22798,-0.16113 3.34161,-0.24649 1.85965,-0.2285 3.43086,0.0842 5.23759,0.55378 2.93152,0.96757 5.84717,1.98838 8.81061,2.84056 2.07417,0.597 4.13625,1.24125 6.19676,1.89014 1.48893,0.42205 2.95963,0.90249 4.42077,1.4234 1.05175,0.39608 2.13432,0.64316 3.23685,0.80311 0.45333,0.0646 0.9104,0.0803 1.36678,0.0981 0,0 -1.07677,-0.84386 -1.07677,-0.84386 v 0 c -0.45371,-0.0217 -0.90792,-0.0424 -1.35842,-0.1087 -1.09607,-0.16548 -2.1699,-0.42697 -3.21626,-0.8191 -1.45666,-0.51574 -2.9251,-0.98418 -4.40788,-1.4063 -2.06081,-0.64085 -4.11759,-1.29706 -6.19275,-1.88298 -2.96038,-0.85163 -5.87504,-1.86306 -8.80343,-2.83035 -1.82468,-0.4718 -3.4207,-0.77454 -5.29723,-0.54678 -1.10931,0.0884 -2.21501,0.26339 -3.32948,0.24386 -1.73632,0.0134 -3.47578,0.029 -5.20591,0.20216 -1.955081,0.2339 -3.867949,0.64599 -5.728192,1.34629 -1.565925,0.51977 -3.163776,0.91957 -4.708848,1.50869 z" /><path
       style="fill:#ff0000;fill-opacity:1;stroke:none;stroke-width:1.00008;stroke-dasharray:none;stroke-opacity:1"
       id="path36"
       d="m 84.629019,115.65735 c -0.336082,1.79079 -0.788302,3.54733 -1.235439,5.30853 -0.655038,2.73516 -1.073787,5.52931 -1.389571,8.33028 -0.363219,2.41848 -0.443466,4.86613 -0.506847,7.30988 -0.04493,1.87512 -0.06746,3.75073 -0.07225,5.62642 -0.04125,1.38938 0.0338,2.76973 0.149897,4.15235 0.01532,1.18656 0.262353,2.32653 0.509041,3.47506 0.124656,0.64917 0.413271,1.2296 0.694407,1.81195 0,0 1.219148,0.58754 1.219148,0.58754 v 0 c -0.280333,-0.57437 -0.58401,-1.13952 -0.712405,-1.7811 -0.246533,-1.14452 -0.510489,-2.27628 -0.521417,-3.46016 -0.120209,-1.37857 -0.202763,-2.75494 -0.155663,-4.14088 -0.0028,-1.88017 -0.0022,-3.76051 0.03894,-5.64029 0.06462,-2.43864 0.161472,-4.87907 0.510812,-7.29381 0.298308,-2.79762 0.71014,-5.58761 1.374025,-8.31506 0.461896,-1.75415 0.917326,-3.50552 1.278162,-5.28773 z" /><path
       style="fill:#ff0000;fill-opacity:1;stroke:none;stroke-width:1.00008;stroke-dasharray:none;stroke-opacity:1"
       id="path37"
       d="m 89.250374,116.36562 c -0.17437,1.98472 -0.196994,3.98022 -0.237334,5.97192 -0.03372,1.67844 -0.04519,3.35711 -0.04975,5.03586 -0.0033,1.24445 -0.0018,2.48888 0.0015,3.73332 0.005,1.7184 0.005,3.43679 0.0054,5.15519 -0.0033,1.59005 -7.18e-4,3.1801 -0.0039,4.77016 -0.05702,1.35254 -0.256832,2.68954 -0.412207,4.03114 -0.145907,1.20026 -0.28611,2.40892 -0.508508,3.59652 -0.161441,0.55891 -0.341523,1.11169 -0.523988,1.66314 0,0 1.170574,0.69289 1.170574,0.69289 v 0 c 0.18698,-0.55712 0.364902,-1.11792 0.53096,-1.68256 0.224322,-1.19171 0.355265,-2.40726 0.502934,-3.61166 0.157212,-1.3467 0.365023,-2.68795 0.420927,-4.04605 -0.0033,-1.5915 -7.18e-4,-3.183 -0.0039,-4.7745 1.59e-4,-1.71674 1.98e-4,-3.43347 0.0039,-5.1502 0.0018,-1.24439 7.19e-4,-2.48876 -0.0015,-3.73315 -7.18e-4,-1.68154 0.0033,-3.36318 0.02829,-5.04454 0.03587,-1.98135 0.06152,-3.96811 0.265747,-5.93961 z" /><path
       style="fill:#ff0000;fill-opacity:1;stroke:none;stroke-width:1.00008;stroke-dasharray:none;stroke-opacity:1"
       id="path38"
       d="m 95.598084,156.67725 c 2.402501,-0.53055 4.710936,-1.46837 7.011566,-2.35786 1.04716,-0.40485 2.10101,-0.7919 3.13428,-1.23568 2.49748,-1.0727 3.77613,-1.7794 6.17537,-3.01173 2.19186,-1.19252 4.38282,-2.40479 6.32072,-4.04095 1.26336,-1.06665 2.36048,-2.32714 3.47293,-3.56368 1.76372,-1.84351 3.66497,-3.52127 5.6011,-5.15066 1.55673,-1.17889 2.5957,-2.8269 3.57688,-4.53792 1.11552,-2.03214 2.38499,-3.94076 3.80378,-5.74119 1.17469,-1.44361 2.19561,-3.01694 3.2145,-4.58689 0.70495,-1.10868 1.48442,-2.15935 2.19359,-3.26468 0.3827,-0.5954 0.19332,-0.29291 0.5678,-0.90772 0,0 -1.15053,-0.71943 -1.15053,-0.71943 v 0 c -0.37379,0.61147 -0.1851,0.30974 -0.56585,0.90532 -0.70607,1.10649 -1.48148,2.1599 -2.17931,3.2728 -1.01214,1.56942 -2.03677,3.13388 -3.20199,4.5797 -1.41532,1.81175 -2.68518,3.72764 -3.8106,5.76061 -0.97841,1.69246 -2.02021,3.31587 -3.55287,4.49631 -1.93335,1.63986 -3.83319,3.3251 -5.59436,5.17756 -1.10183,1.2326 -2.1851,2.49311 -3.43494,3.56053 -1.91669,1.63695 -4.08471,2.86201 -6.25787,4.05642 -2.50698,1.29508 -3.54192,1.88637 -6.16615,3.00336 -1.03625,0.44108 -2.09214,0.82758 -3.14305,1.22699 -1.5126,0.57488 -3.801167,1.43383 -5.404686,1.88362 -0.556285,0.15603 -1.127184,0.24484 -1.690776,0.36726 z" /><path
       style="fill:#ff0000;fill-opacity:1;stroke:none;stroke-width:1.00008;stroke-dasharray:none;stroke-opacity:1"
       id="path39"
       d="m 98.279833,56.475463 c 1.244419,-0.08576 2.454827,-0.333959 3.652657,-0.693637 1.18318,-0.361201 2.35989,-0.714806 3.5829,-0.877018 1.07304,-0.197674 2.15033,-0.351032 3.23645,-0.432434 0.86024,-0.05446 1.72241,-0.05453 2.58383,-0.05602 2.07293,0.363715 3.9726,1.388743 5.91082,2.20558 1.42327,0.536454 2.79183,1.196332 4.12221,1.953505 0.13796,0.07851 -0.51362,-0.364981 -0.41313,-0.236982 0.14758,0.187985 0.37438,0.28404 0.56157,0.42606 1.03306,0.773032 1.47175,2.02105 1.9813,3.203279 0.66458,1.67387 1.33819,3.343567 1.99825,5.019524 0.59504,1.227023 0.95686,2.573217 1.57428,3.784805 0.75828,1.107605 1.19504,2.364877 1.54658,3.670069 0.39183,1.395605 0.5273,2.842659 0.60434,4.290666 0.023,1.138496 0.18089,2.266879 0.27405,3.40012 0.13296,1.089843 0.55893,2.105289 0.82112,3.164353 0.22251,0.780391 0.41267,1.569632 0.69096,2.330173 0.35314,0.753551 0.731,1.49222 1.08135,2.247494 0.61251,1.158765 1.28801,2.278308 1.95242,3.403591 0.64919,0.937943 1.20503,1.934281 1.76357,2.934518 0.68012,1.119209 1.40635,2.207449 2.06901,3.338304 0.54305,1.037937 1.15769,2.024307 1.778,3.009707 0.36371,0.58468 0.57103,1.25221 0.76261,1.91781 0,0 1.21025,0.61294 1.21025,0.61294 v 0 c -0.18348,-0.6788 -0.3939,-1.35874 -0.75042,-1.95917 -0.61777,-0.98808 -1.25141,-1.96263 -1.78571,-3.00772 -0.65142,-1.13618 -1.38727,-2.217219 -2.06668,-3.33484 -0.56218,-1.000476 -1.10134,-2.010574 -1.76679,-2.939921 -0.66472,-1.118601 -1.32999,-2.238174 -1.95009,-3.385798 -0.34494,-0.754275 -0.71026,-1.495173 -1.08066,-2.235245 -0.29034,-0.752709 -0.47188,-1.541123 -0.70216,-2.315967 -0.25658,-1.055154 -0.68297,-2.062495 -0.83067,-3.142597 -0.0949,-1.133686 -0.25842,-2.262014 -0.28532,-3.400788 -0.072,-1.457608 -0.20596,-2.915692 -0.5958,-4.321247 -0.34458,-1.311685 -0.7514,-2.590038 -1.52484,-3.6962 -0.64888,-1.191219 -0.97989,-2.558285 -1.59121,-3.775409 -0.66446,-1.675 -1.3377,-3.345931 -1.997,-5.023238 -0.32442,-0.769115 -0.6667,-1.765164 -1.13663,-2.449212 -0.20758,-0.30216 -0.55288,-0.583455 -0.81292,-0.819364 -1.98107,-1.545295 -4.22768,-2.613778 -6.51723,-3.516554 -1.95347,-0.830153 -3.87639,-1.86995 -5.97722,-2.192482 -0.8629,0.0028 -1.72671,0.0035 -2.58808,0.06532 -1.08516,0.08974 -2.16062,0.252726 -3.23417,0.443476 -1.22551,0.171561 -2.40469,0.535911 -3.59205,0.895353 -1.198059,0.355906 -2.412776,0.583737 -3.655829,0.665547 z" /></g></svg>
